<svg id="Vrstva_1" data-name="Vrstva 1" xmlns="http://www.w3.org/2000/svg" xmlns:xlink="http://www.w3.org/1999/xlink" viewBox="0 0 309.23 116.36">
  <defs>
    <symbol id="Nový_symbol_2-2" data-name="Nový symbol… 2" viewBox="0 0 12.87 12.87">
      <circle cx="6.43" cy="6.43" r="6.43" />
    </symbol>
    <symbol id="Nový_symbol_" data-name="Nový symbol…" viewBox="0 0 308.18 116.17">
      <path d="M29.14,50.08c0,8-6.53,8.57-14.57,8.57S0,58.12,0,50.08a14.57,14.57,0,0,1,29.14,0Z" />
      <use width="12.87" height="12.87" transform="translate(86.92) scale(1 0.85)" xlink:href="#Nový_symbol_2-2"/>
      <path d="M89.36,105.34c0,9.3-3.54,10.83-12.84,10.83s-16.83-1.53-16.83-10.83A16.83,16.83,0,0,1,76.52,88.5C85.82,88.5,89.36,96,89.36,105.34Z" />
      <g>
        <path d="M88.54,48.33c0,10.61-6.43,17-15.89,17S57.43,58.13,57.43,48.91c0-9.7,6.19-16.94,15.75-16.94C83.11,32,88.54,39.41,88.54,48.33Zm-23.38.44c0,6.33,3,10.8,7.87,10.8s7.78-4.71,7.78-11c0-5.8-2.78-10.8-7.83-10.8S65.16,42.48,65.16,48.77Z" />
        <path d="M93.58,57.31a18.6,18.6,0,0,0,8.11,2c3.36,0,5.13-1.39,5.13-3.51s-1.53-3.16-5.42-4.56c-5.38-1.87-8.88-4.85-8.88-9.55,0-5.52,4.61-9.74,12.24-9.74A19.74,19.74,0,0,1,113,33.6l-1.64,5.9A15.42,15.42,0,0,0,104.62,38c-3.17,0-4.71,1.44-4.71,3.12,0,2.06,1.83,3,6,4.56,5.72,2.11,8.4,5.08,8.4,9.65,0,5.42-4.17,10-13,10a21.12,21.12,0,0,1-9.17-2Z" />
        <path d="M125.5,38.64h-8.69V32.49h24.86v6.15h-8.83V64.85H125.5Z" />
        <path d="M145.56,32.92a64.85,64.85,0,0,1,9.74-.67c4.8,0,8.16.72,10.47,2.55a8.21,8.21,0,0,1,3,6.77,8.57,8.57,0,0,1-5.72,8v.15c2.26.91,3.51,3.07,4.32,6,1,3.65,2,7.87,2.64,9.12H162.5a41.19,41.19,0,0,1-2.25-7.54c-.87-4-2.26-5.14-5.23-5.18h-2.21V64.85h-7.25Zm7.25,13.93h2.88c3.65,0,5.81-1.83,5.81-4.66s-2-4.46-5.38-4.51a17.84,17.84,0,0,0-3.31.24Z" />
        <path d="M181.08,32.49V51.12c0,5.57,2.11,8.4,5.86,8.4s5.95-2.69,5.95-8.4V32.49h7.29V50.64c0,10-5,14.74-13.48,14.74-8.16,0-13-4.52-13-14.84v-18Z" />
        <path d="M204.45,60.91l15.41-22.18v-.19h-14v-6h23.48v4.23L214.29,58.61v.19h15.32v6H204.45Zm10.32-30.15-4.84-5.9h5.13l2.4,3h.1l2.4-3h5.14l-4.85,5.9Z" />
        <path d="M241.56,32.49V64.85h-7.35V32.49Z" />
        <path d="M247.89,64.85V32.49h8.55l6.72,11.86a93.83,93.83,0,0,1,5.28,11.09h.14A120.09,120.09,0,0,1,268,42V32.49h6.72V64.85H267l-6.91-12.48a120.05,120.05,0,0,1-5.62-11.43l-.14.05c.19,4.27.28,8.83.28,14.11v9.75Z" />
        <path d="M288.55,56.54l-2.3,8.31h-7.59l9.89-32.36h9.6l10,32.36h-7.87l-2.5-8.31Zm8.21-5.47-2-6.86c-.57-1.92-1.15-4.32-1.63-6.24H293c-.48,1.92-1,4.36-1.48,6.24l-1.92,6.86Z" />
      </g>
      <use width="12.87" height="12.87" transform="translate(200.21 81.69) scale(1 0.88)" xlink:href="#Nový_symbol_2-2"/>
    </symbol>
  </defs>
  <use width="308.18" height="116.17" xlink:href="#Nový_symbol_"/>
</svg>
