<svg id="Vrstva_1" data-name="Vrstva 1" xmlns="http://www.w3.org/2000/svg" xmlns:xlink="http://www.w3.org/1999/xlink" viewBox="0 0 318.44 242.09"><defs><clipPath id="clip-path"><rect width="318.44" height="242.09" style="fill:none"/></clipPath></defs><g style="clip-path:url(#clip-path)"><path d="M215.87,2.79c110,13.1,107.1,65.53,99.26,123.44-5.68,41.9-32.41,119-140,115.76s-180-51.6-174.91-125C4.84,50.42,43.18-14.35,215.87,2.79" style="fill:#261739"/></g><path d="M114,75.79q-5.9-2-5.89-6.23a4.66,4.66,0,0,1,1.54-3.73,6.28,6.28,0,0,1,4.3-1.34,14.09,14.09,0,0,1,4.75.77,1.56,1.56,0,0,1,.74.58,1.6,1.6,0,0,1,.29.93.6.6,0,0,1-.32.55.66.66,0,0,1-.65,0,11.41,11.41,0,0,0-4.64-1,4.4,4.4,0,0,0-2.75.8,2.84,2.84,0,0,0-1,2.42q0,2.79,3.73,4a12.06,12.06,0,0,1,5,2.68,5.41,5.41,0,0,1,1.43,3.87,5.29,5.29,0,0,1-1.68,4.24,7.33,7.33,0,0,1-4.93,1.46,10.62,10.62,0,0,1-4.41-.89,1.6,1.6,0,0,1-1-1.59.56.56,0,0,1,.31-.54.6.6,0,0,1,.63,0,8.48,8.48,0,0,0,4.3,1.11q4.5,0,4.5-3.79a3.56,3.56,0,0,0-1-2.56A7.94,7.94,0,0,0,114,75.79Z" style="fill:#fff"/><path d="M123,66.71a.92.92,0,0,1-.68-.29.91.91,0,0,1-.29-.68.94.94,0,0,1,.29-.68.92.92,0,0,1,.68-.29h12.7a.92.92,0,0,1,.68.29.94.94,0,0,1,.29.68.91.91,0,0,1-.29.68.92.92,0,0,1-.68.29h-4.95c-.18,0-.26.08-.26.26V84.42a1.11,1.11,0,0,1-.33.8,1.13,1.13,0,0,1-1.62,0,1.11,1.11,0,0,1-.33-.8V67c0-.18-.08-.26-.25-.26Z" style="fill:#fff"/><path d="M141.93,85.22a1.15,1.15,0,0,1-1.63,0,1.11,1.11,0,0,1-.33-.8V66.54a1.85,1.85,0,0,1,.46-1.24,1.7,1.7,0,0,1,1.14-.61,32.43,32.43,0,0,1,3.73-.2,10.22,10.22,0,0,1,6,1.47,4.81,4.81,0,0,1,2,4.17,5.62,5.62,0,0,1-1.15,3.6,5.93,5.93,0,0,1-3.29,2s0,0,0,.06,0,0,0,0c.81.48,1.65,1.71,2.5,3.71l2.05,5a.69.69,0,0,1-.07.73.77.77,0,0,1-.67.35,1.63,1.63,0,0,1-1-.31,1.84,1.84,0,0,1-.64-.8l-2-4.9A6,6,0,0,0,147.51,77a6.08,6.08,0,0,0-3-.49h-2c-.17,0-.26.07-.26.22v7.69A1.14,1.14,0,0,1,141.93,85.22Zm.32-18.37v7.58c0,.17.09.25.26.25h2a8.92,8.92,0,0,0,5-1.09,3.69,3.69,0,0,0,1.6-3.26q0-4-6-4a15.29,15.29,0,0,0-2.59.23C142.34,66.61,142.25,66.7,142.25,66.85Z" style="fill:#fff"/><path d="M169.88,84a8.6,8.6,0,0,1-10.71,0,7.56,7.56,0,0,1-1.85-5.54V65.94a1.16,1.16,0,0,1,1.14-1.17,1.15,1.15,0,0,1,.82.34,1.13,1.13,0,0,1,.34.83V78.53a5.82,5.82,0,0,0,1.22,4.07,4.81,4.81,0,0,0,3.71,1.31,4.89,4.89,0,0,0,3.73-1.31,5.78,5.78,0,0,0,1.23-4.07V65.88a1,1,0,0,1,.32-.79,1.12,1.12,0,0,1,1.57,0,1,1,0,0,1,.33.79V78.44A7.56,7.56,0,0,1,169.88,84Z" style="fill:#fff"/><path d="M175.89,82.86,186,66.77l0,0v0a0,0,0,0,0,0,0h-9.65a.88.88,0,0,1-.65-.28.94.94,0,0,1-.29-.69.92.92,0,0,1,.27-.65.88.88,0,0,1,.67-.29h11.39a.88.88,0,0,1,.67.29.92.92,0,0,1,.27.65,3.1,3.1,0,0,1-.48,1.77L178.08,83.57l0,0v0s0,0,0,0h9.65a.91.91,0,0,1,.66.29,1,1,0,0,1,0,1.34.88.88,0,0,1-.67.28H176.34a.88.88,0,0,1-.67-.28.93.93,0,0,1-.27-.66A3,3,0,0,1,175.89,82.86Zm8.23-23.5a2.43,2.43,0,0,1,2.07-1,.59.59,0,0,1,.57.35.54.54,0,0,1-.08.65l-2.08,2.53a3.31,3.31,0,0,1-5.13,0l-2.08-2.53a.57.57,0,0,1,0-.65.56.56,0,0,1,.54-.35,2.46,2.46,0,0,1,2.08,1l2,2.71h.11Z" style="fill:#fff"/><path d="M196.18,85.21a1.26,1.26,0,0,1-1.74,0,1.19,1.19,0,0,1-.36-.87V66a1.23,1.23,0,0,1,2.1-.87,1.22,1.22,0,0,1,.35.87V84.34A1.22,1.22,0,0,1,196.18,85.21Z" style="fill:#fff"/><path d="M204.12,85.25a1.11,1.11,0,0,1-1.89-.8V65.94a1.13,1.13,0,0,1,.34-.83,1.15,1.15,0,0,1,.82-.34,1.92,1.92,0,0,1,1.77,1l9.45,16s0,0,.06,0a0,0,0,0,0,0,0v-16a1,1,0,0,1,.33-.79,1.1,1.1,0,0,1,.78-.32,1.08,1.08,0,0,1,.78.32,1,1,0,0,1,.33.79V84.39a1.16,1.16,0,0,1-1.17,1.17,1.93,1.93,0,0,1-1.76-1l-9.46-16s0,0-.05,0,0,0,0,0v16A1.06,1.06,0,0,1,204.12,85.25Z" style="fill:#fff"/><path d="M221.16,85.56a.81.81,0,0,1-.68-.35.77.77,0,0,1-.11-.76L226.86,66a1.81,1.81,0,0,1,.67-.87,1.8,1.8,0,0,1,2.08,0,1.81,1.81,0,0,1,.67.87l6.46,18.45a.85.85,0,0,1-.8,1.14,1.7,1.7,0,0,1-1.62-1.17l-1.51-4.67a.32.32,0,0,0-.34-.22h-7.89a.31.31,0,0,0-.31.22l-1.57,4.73a1.58,1.58,0,0,1-1.54,1.11Zm7.32-18.71L225,77.45a.14.14,0,0,0,0,.15.16.16,0,0,0,.14.07h6.69a.14.14,0,0,0,.13-.07.26.26,0,0,0,0-.15l-3.47-10.6a0,0,0,0,0,0,0S228.48,66.83,228.48,66.85Z" style="fill:#fff"/><path d="M96.67,111.26l.14-.13h4c3.06,0,4.71,1.58,4.71,4.18a3.94,3.94,0,0,1-4.18,4.08,2.54,2.54,0,0,1-2.37-1.23l.11,1.18v4.5l-.13.11H96.81l-.14-.11Zm3.75,6.25c1.31,0,2.69-.6,2.69-2.2a2.08,2.08,0,0,0-2.37-2.17H99v4.13A4,4,0,0,0,100.42,117.51Z" style="fill:#fff"/><path d="M107.33,110.35l.14-.13,2-.27.13.14v11.22c0,.52.44.69.88.69h.13l.13.13-.28,1.73-.14.13-.36,0a2.34,2.34,0,0,1-2.64-2.37Z" style="fill:#fff"/><path d="M112.35,117.63c0-2.24,1.73-3.46,4-3.46s4,1.22,4,3.46v3.09c0,2.25-1.73,3.46-4,3.46s-4-1.21-4-3.46Zm4,4.6a1.61,1.61,0,0,0,1.74-1.81v-2.51a1.75,1.75,0,1,0-3.49,0v2.51A1.6,1.6,0,0,0,116.38,122.23Z" style="fill:#fff"/><path d="M122.4,117.63a3.4,3.4,0,0,1,3.69-3.46,3.34,3.34,0,0,1,1.89.55l-.11-1v-3.38l.13-.13,2-.27.13.14v11.66l.55,1.94-.11.15-1.85.25-.15-.12-.61-1.52a2.6,2.6,0,0,1-2.5,1.73,3.08,3.08,0,0,1-3.08-3.34Zm4,4.65a9.37,9.37,0,0,0,1.5-.28v-4.3a1.4,1.4,0,0,0-1.58-1.57,1.57,1.57,0,0,0-1.61,1.78v2.53A1.62,1.62,0,0,0,126.37,122.28Z" style="fill:#fff"/><path d="M133.5,126.35c.72,0,1.12-.63,1.61-1.85l.38-1-.32-.11-.12-.15-3.34-8.63.11-.15,2.23-.23.15.12,1.78,5.66.36,1.52.4-1.52,1.68-5.4.13-.15,2.24-.23.15.12-4.08,10.92c-.53,1.39-1.18,3-3.29,3a4,4,0,0,1-2.45-.82l-.06-.19.82-1.44.17-.06A2.6,2.6,0,0,0,133.5,126.35Z" style="fill:#fff"/><path d="M146.72,115.75c0-3.14,2.09-4.81,5.36-4.81s5.37,1.67,5.37,4.81v3.68c0,3.12-2.07,4.75-5.37,4.75s-5.36-1.63-5.36-4.75Zm5.36,6.34c1.74,0,3-.87,3-2.81v-3.4a3,3,0,0,0-5.95,0v3.4C149.11,121.22,150.37,122.09,152.08,122.09Z" style="fill:#fff"/><path d="M159.41,122.93l1.08-1.41.19,0a4.08,4.08,0,0,0,2,.73c.8,0,1.54-.21,1.54-1.09,0-.57-.78-.81-1.62-1.06-1.4-.42-3.11-1-3.11-2.93,0-2.09,1.93-3,3.81-3a5.21,5.21,0,0,1,2.95,1l0,.19-1.1,1.41H165a3.43,3.43,0,0,0-1.65-.6c-.89,0-1.54.38-1.54,1s.8.9,1.68,1.14c1.4.4,3,.9,3,2.85,0,2.34-1.78,3-3.8,3a5.76,5.76,0,0,1-3.32-1.06Z" style="fill:#fff"/><path d="M169,116.35h-1l-.13-.13v-1.69l.13-.13h1.16l.23-2,.13-.13,1.65-.25.14.13v2.21h3l.13.13-.42,1.69-.13.13h-2.6v4c0,1.07.47,1.83,1.29,1.83a3.27,3.27,0,0,0,1.48-.46l.19,0,.76,1.46,0,.19a4.66,4.66,0,0,1-2.62.76c-1.88,0-3.34-1.27-3.34-3.74Z" style="fill:#fff"/><path d="M176.55,116.6l-.55-1.94.11-.15,1.84-.24.16.11.6,1.52a2.62,2.62,0,0,1,2.7-1.77l.13.15-.2,2.21-.18.13a4.7,4.7,0,0,0-1.69-.32,2.64,2.64,0,0,0-.64,0v7.47l-.14.13h-2l-.13-.13Z" style="fill:#fff"/><path d="M183,114.64l.13-.13,2-.26.13.13v6.06a1.62,1.62,0,0,0,1.69,1.84,9.37,9.37,0,0,0,1.5-.28v-7.36l.13-.13,2-.26.13.13v7.37l.55,1.94-.11.15-1.85.25-.15-.12-.61-1.52a2.6,2.6,0,0,1-2.5,1.73,3.08,3.08,0,0,1-3.08-3.34Z" style="fill:#fff"/><path d="M192.87,122.68l4.31-6.34H193.1l-.14-.14.29-1.67.15-.13H200l.13.13v1.22L195.81,122H200l.14.13v1.67L200,124h-6.74l-.15-.11Zm2.64-9.78-1.75-2.17.1-.15,1.55-.34.2.09,1,1.35,1-1.35.19-.09,1.55.34.1.15-1.75,2.17-.17.09h-1.9Z" style="fill:#fff"/><path d="M202.27,112.42v-2l.14-.11h2.11l.13.11v2l-.13.12h-2.11Zm0,2.22.13-.13,2-.26.13.13v9.44l-.13.13h-2l-.13-.13Z" style="fill:#fff"/><path d="M207.31,116.6l-.55-1.94.11-.15,1.85-.24.15.11.61,1.52a2.8,2.8,0,0,1,2.65-1.73,3,3,0,0,1,3,3.34v6.31L215,124h-2l-.14-.13v-5.91c0-1.31-.74-1.84-1.65-1.84a10.74,10.74,0,0,0-1.65.28v7.47l-.13.13h-2l-.13-.13Z" style="fill:#fff"/><path d="M218.37,126.35c.72,0,1.12-.63,1.61-1.85l.38-1-.32-.11-.12-.15-3.34-8.63.11-.15,2.23-.23.15.12,1.79,5.66.36,1.52.4-1.52,1.67-5.4.13-.15,2.24-.23.15.12-4.08,10.92c-.53,1.39-1.18,3-3.29,3a4,4,0,0,1-2.45-.82l-.05-.19.81-1.44.17-.06A2.6,2.6,0,0,0,218.37,126.35Z" style="fill:#fff"/><path d="M73.89,137.53v-3.46h-.75l-.07-.07v-.87l.07-.07H74l.13-1.41.07-.09.79-.11.07.06v1.55h2.33l.07.07-.27.87-.1.07H75v3.37a2,2,0,0,0,.34,1.2,1.05,1.05,0,0,0,.9.47,1.28,1.28,0,0,0,.49-.11,1.57,1.57,0,0,0,.4-.23l.14-.09h.1l.43.8,0,.1a2.87,2.87,0,0,1-1.64.56,2.14,2.14,0,0,1-1.63-.68A2.75,2.75,0,0,1,73.89,137.53Z" style="fill:#fff"/><path d="M78,141.77a1.51,1.51,0,0,0,1.09.44c.56,0,1-.43,1.3-1.28l.44-1.18-.16-.05-.11-.1-2.41-6.38.07-.09,1.1-.14.07.06,1.63,5,.21.74.17-.62,1.6-5,.08-.07,1.12-.14,0,.07-2.92,8.33a2.27,2.27,0,0,1-2.2,1.82,2.69,2.69,0,0,1-1.61-.54l0-.11.42-.76ZM81,132l-.7-.28v-.08l.84-1.43.1-.06h1.51l.07.06L81.12,132Z" style="fill:#fff"/><path d="M85.3,137.68v-2.36a2.3,2.3,0,0,1,.71-1.79,2.67,2.67,0,0,1,1.84-.64,2.58,2.58,0,0,1,1.54.48l0-.62V130l.07-.08,1-.14.07.06v8.75l.35,1.23-.07.08-.86.13L89.8,140l-.41-1a1.59,1.59,0,0,1-.62.82,2.18,2.18,0,0,1-1.32.35,2,2,0,0,1-1.56-.65A2.6,2.6,0,0,1,85.3,137.68Zm1.12-.24a1.76,1.76,0,0,0,.42,1.29,1.46,1.46,0,0,0,1.07.41,2,2,0,0,0,.52-.1c.24-.06.45-.13.63-.19l.28-.1v-3.36a1.3,1.3,0,0,0-1.45-1.49,1.42,1.42,0,0,0-1.06.43,1.69,1.69,0,0,0-.41,1.21Z" style="fill:#fff"/><path d="M92.39,137.73v-2.36a2.32,2.32,0,0,1,.73-1.82,2.76,2.76,0,0,1,1.93-.66,2.5,2.5,0,0,1,1.85.62,2,2,0,0,1,.6,1.46,1.85,1.85,0,0,1-.64,1.53,2.53,2.53,0,0,1-1.67.52,2.56,2.56,0,0,1-1-.19,1.57,1.57,0,0,1-.54-.33,1.22,1.22,0,0,1-.16-.26l.07.52v.73a1.66,1.66,0,0,0,.42,1.22,1.52,1.52,0,0,0,1.15.43,1.63,1.63,0,0,0,1.52-.74l.1,0,.84.29,0,.09a2,2,0,0,1-.9,1,3.53,3.53,0,0,1-3.57-.25A2.24,2.24,0,0,1,92.39,137.73Zm1.12-1.95a3.44,3.44,0,0,0,1.36.25c1,0,1.45-.37,1.45-1.12a.93.93,0,0,0-.33-.71,1.42,1.42,0,0,0-1-.3,1.45,1.45,0,0,0-1.12.42,1.74,1.74,0,0,0-.38,1.21Z" style="fill:#fff"/><path d="M99.35,139.91v-5.39L99,133.2l.07-.08.85-.13.08.06.4,1a1,1,0,0,1,.13-.26,2,2,0,0,1,.3-.36,1.55,1.55,0,0,1,.61-.37,2.61,2.61,0,0,1,.92-.15,2.16,2.16,0,0,1,1.59.64,2.44,2.44,0,0,1,.63,1.79v4.59l-.07.07h-1l-.07-.07v-4.37a1.58,1.58,0,0,0-.45-1.24,1.63,1.63,0,0,0-1.12-.4,9.85,9.85,0,0,0-1.42.33v5.68l-.07.07h-1Z" style="fill:#fff"/><path d="M110.32,137.53v-3.46h-.75l-.07-.07v-.87l.07-.07h.81l.12-1.41.07-.09.8-.11.07.06v1.55h2.33l.07.07-.27.87-.1.07h-2v3.37a2,2,0,0,0,.34,1.2,1,1,0,0,0,.89.47,1.33,1.33,0,0,0,.5-.11,1.76,1.76,0,0,0,.4-.23l.14-.09h.1l.43.8,0,.1a2.82,2.82,0,0,1-1.63.56,2.13,2.13,0,0,1-1.63-.68A2.75,2.75,0,0,1,110.32,137.53Z" style="fill:#fff"/><path d="M114.94,138.09a1.9,1.9,0,0,1,.67-1.53,3.55,3.55,0,0,1,2.19-.53h.49a1.17,1.17,0,0,0,.61-.14v-.66c0-.88-.48-1.33-1.44-1.33a2.11,2.11,0,0,0-1.38.42H116l-.47-.7,0-.11a3.5,3.5,0,0,1,3.81-.09A1.87,1.87,0,0,1,120,135v3.59l.35,1.23-.07.08-.85.13-.08-.06-.41-1,0,.13a1.45,1.45,0,0,1-.17.28,2.2,2.2,0,0,1-.33.35,1.87,1.87,0,0,1-.55.28,2.47,2.47,0,0,1-.79.13,2.36,2.36,0,0,1-1.5-.5A1.86,1.86,0,0,1,114.94,138.09Zm1.18,0a1,1,0,0,0,.31.75,1.16,1.16,0,0,0,.82.29,2.88,2.88,0,0,0,.72-.1,3.14,3.14,0,0,0,.67-.21l.26-.1v-2.36c-.14.46-.55.7-1.23.7h-.33a1.53,1.53,0,0,0-.85.23A.86.86,0,0,0,116.12,138.1Z" style="fill:#fff"/><path d="M122.12,139.91v-5.39l-.35-1.32.07-.08.86-.13.08.06.39,1a1.71,1.71,0,0,1,.14-.26,2,2,0,0,1,.3-.36,1.55,1.55,0,0,1,.61-.37,2.55,2.55,0,0,1,.91-.15,2.17,2.17,0,0,1,1.6.64,2.44,2.44,0,0,1,.63,1.79v4.59l-.07.07h-1l-.07-.07v-4.37a1.58,1.58,0,0,0-.45-1.24,1.65,1.65,0,0,0-1.12-.4,10.15,10.15,0,0,0-1.43.33v5.68l-.07.07h-1Z" style="fill:#fff"/><path d="M129.19,137.73v-2.36a2.36,2.36,0,0,1,.73-1.82,2.77,2.77,0,0,1,1.93-.66,2.49,2.49,0,0,1,1.85.62,2,2,0,0,1,.6,1.46,1.88,1.88,0,0,1-.63,1.53,3,3,0,0,1-2.73.33,1.57,1.57,0,0,1-.54-.33,1.22,1.22,0,0,1-.16-.26l.07.52v.73a1.66,1.66,0,0,0,.42,1.22,1.53,1.53,0,0,0,1.15.43,1.63,1.63,0,0,0,1.53-.74l.1,0,.84.29,0,.09a2,2,0,0,1-.9,1,3.09,3.09,0,0,1-1.55.37,3.06,3.06,0,0,1-2-.62A2.24,2.24,0,0,1,129.19,137.73Zm1.12-1.95a3.51,3.51,0,0,0,1.36.25c1,0,1.46-.37,1.46-1.12a.93.93,0,0,0-.33-.71,1.72,1.72,0,0,0-2.1.12,1.69,1.69,0,0,0-.39,1.21Z" style="fill:#fff"/><path d="M135.87,137.73v-2.4a2.26,2.26,0,0,1,.73-1.76,2.82,2.82,0,0,1,2-.68,3,3,0,0,1,1.46.37,2.08,2.08,0,0,1,.92,1.06l0,.09-.84.29-.1,0a1.52,1.52,0,0,0-1.47-.77,1.54,1.54,0,0,0-1.13.43,1.71,1.71,0,0,0-.41,1.23v1.93a1.7,1.7,0,0,0,.41,1.22,1.5,1.5,0,0,0,1.13.43,1.6,1.6,0,0,0,1.54-.74l.1,0,.84.29,0,.09a2,2,0,0,1-.91,1,3,3,0,0,1-1.54.37,2.81,2.81,0,0,1-2-.67A2.24,2.24,0,0,1,135.87,137.73Zm2.31-5.82-.12-.06-1.29-1.43,0-.1.77-.25h.09l.94,1.09.94-1.09h.1l.77.25,0,.1-1.29,1.43-.13.06Z" style="fill:#fff"/><path d="M142.76,139.91v-5.39l-.35-1.32.07-.08.85-.13.09.06.39,1a1.57,1.57,0,0,1,.13-.26,2,2,0,0,1,.3-.36,1.63,1.63,0,0,1,.61-.37,2.61,2.61,0,0,1,.92-.15,2.16,2.16,0,0,1,1.59.64,2.45,2.45,0,0,1,.64,1.79v4.59l-.07.07h-1l-.07-.07v-4.37a1.58,1.58,0,0,0-.44-1.24,1.65,1.65,0,0,0-1.12-.4,9.83,9.83,0,0,0-1.43.33v5.68l-.07.07h-1Z" style="fill:#fff"/><path d="M150.53,132l-.7-.28v-.08l.84-1.43.09-.06h1.52l.07.06L150.61,132Zm-.48,7.9v-6.69l.07-.09,1-.14.07.06v6.86l-.07.07h-1Z" style="fill:#fff"/><path d="M153.06,137.73v-2.4a2.3,2.3,0,0,1,.73-1.76,2.83,2.83,0,0,1,2-.68,3,3,0,0,1,1.46.37,2,2,0,0,1,.92,1.06l0,.09-.84.29-.1,0a1.52,1.52,0,0,0-1.47-.77,1.5,1.5,0,0,0-1.12.43,1.67,1.67,0,0,0-.42,1.23v1.93a1.66,1.66,0,0,0,.42,1.22,1.46,1.46,0,0,0,1.12.43,1.6,1.6,0,0,0,1.54-.74l.1,0,.84.29,0,.09a2,2,0,0,1-.91,1,3,3,0,0,1-1.54.37,2.83,2.83,0,0,1-2-.67A2.28,2.28,0,0,1,153.06,137.73Z" style="fill:#fff"/><path d="M159.91,139.91V130l.07-.08,1-.14.07.06v3.51L161,134a1.1,1.1,0,0,1,.17-.29,2.65,2.65,0,0,1,.34-.35,1.58,1.58,0,0,1,.62-.33,3,3,0,0,1,.89-.13,2.06,2.06,0,0,1,1.56.63,2.55,2.55,0,0,1,.59,1.8v4.59l-.07.07h-1l-.07-.07v-4.37a1.66,1.66,0,0,0-.42-1.25,1.53,1.53,0,0,0-1.09-.39,7.52,7.52,0,0,0-1.47.33v5.68L161,140h-1Z" style="fill:#fff"/><path d="M171.81,139.66l.05.64v2.62l-.07.08-1,.14-.07,0v-8.57l-.35-1.32.07-.08.86-.13.08.06.39,1a1.71,1.71,0,0,1,.14-.26,2,2,0,0,1,.3-.36,1.55,1.55,0,0,1,.61-.37,2.55,2.55,0,0,1,.91-.15,2.06,2.06,0,0,1,1.57.63,2.55,2.55,0,0,1,.59,1.8v2.41a2.28,2.28,0,0,1-.71,1.78,2.67,2.67,0,0,1-1.85.64A2.51,2.51,0,0,1,171.81,139.66Zm.05-2a1.3,1.3,0,0,0,1.45,1.49,1.46,1.46,0,0,0,1.07-.43,1.73,1.73,0,0,0,.41-1.22v-2a1.65,1.65,0,0,0-.42-1.24,1.53,1.53,0,0,0-1.08-.4,10.15,10.15,0,0,0-1.43.33Z" style="fill:#fff"/><path d="M178.78,131.91l-.13-.06-1.28-1.43,0-.1.77-.25h.1l.94,1.09.94-1.09h.1l.77.25,0,.1-1.28,1.43-.13.06Zm-.92,8v-5.39l-.35-1.32.07-.08.85-.13.08.06.4,1a1,1,0,0,1,.13-.26,2.39,2.39,0,0,1,.29-.36,1.58,1.58,0,0,1,.6-.37,2.48,2.48,0,0,1,.89-.15l.07.09-.21,1.17-.09.08a1.59,1.59,0,0,0-.73-.13,2.93,2.93,0,0,0-.88.13v5.68l-.07.07h-1Z" style="fill:#fff"/><path d="M181.9,137.73v-2.36a2.36,2.36,0,0,1,.73-1.82,2.77,2.77,0,0,1,1.93-.66,2.49,2.49,0,0,1,1.85.62A2,2,0,0,1,187,135a1.88,1.88,0,0,1-.63,1.53,3,3,0,0,1-2.73.33,1.57,1.57,0,0,1-.54-.33,1.22,1.22,0,0,1-.16-.26l.07.52v.73a1.66,1.66,0,0,0,.42,1.22,1.53,1.53,0,0,0,1.15.43,1.63,1.63,0,0,0,1.53-.74l.09,0,.84.29,0,.09a1.94,1.94,0,0,1-.91,1,3.53,3.53,0,0,1-3.57-.25A2.24,2.24,0,0,1,181.9,137.73Zm1.12-1.95a3.47,3.47,0,0,0,1.36.25c1,0,1.46-.37,1.46-1.12a.93.93,0,0,0-.33-.71,1.72,1.72,0,0,0-2.1.12,1.69,1.69,0,0,0-.39,1.21Z" style="fill:#fff"/><path d="M188.59,137.68v-2.36a2.3,2.3,0,0,1,.71-1.79,2.67,2.67,0,0,1,1.84-.64,2.56,2.56,0,0,1,1.54.48l-.05-.62V130l.07-.08,1-.14.07.06v8.75l.35,1.23-.07.08-.86.13-.08-.06-.41-1a1.59,1.59,0,0,1-.62.82,2.18,2.18,0,0,1-1.32.35,2,2,0,0,1-1.56-.65A2.6,2.6,0,0,1,188.59,137.68Zm1.12-.24a1.76,1.76,0,0,0,.42,1.29,1.46,1.46,0,0,0,1.07.41,2,2,0,0,0,.52-.1c.24-.06.45-.13.63-.19l.28-.1v-3.36a1.3,1.3,0,0,0-1.45-1.49,1.42,1.42,0,0,0-1.06.43,1.69,1.69,0,0,0-.41,1.21Z" style="fill:#fff"/><path d="M195.52,139.5v-.08l.53-.74.11,0a2.08,2.08,0,0,0,.67.33,2.58,2.58,0,0,0,.79.15c.93,0,1.4-.37,1.4-1.09a.73.73,0,0,0-.36-.63,2.92,2.92,0,0,0-.87-.39c-.34-.1-.67-.21-1-.34a2,2,0,0,1-.86-.63,1.68,1.68,0,0,1-.36-1.11,1.77,1.77,0,0,1,.74-1.53,3,3,0,0,1,1.78-.53,3.12,3.12,0,0,1,1.81.55l0,.1-.55.74h-.1a2.06,2.06,0,0,0-1.16-.38,1.7,1.7,0,0,0-1,.28.91.91,0,0,0-.39.77.77.77,0,0,0,.36.67,2.85,2.85,0,0,0,.86.4c.33.09.67.2,1,.31a2,2,0,0,1,.87.6,1.69,1.69,0,0,1,.36,1.12c0,1.4-.84,2.1-2.51,2.1A3.4,3.4,0,0,1,195.52,139.5Z" style="fill:#fff"/><path d="M202,137.53v-3.46h-.76l-.07-.07v-.87l.07-.07h.82l.12-1.41.07-.09.8-.11.07.06v1.55h2.32l.07.07-.26.87-.1.07h-2v3.37a2,2,0,0,0,.34,1.2,1,1,0,0,0,.89.47,1.33,1.33,0,0,0,.5-.11,2,2,0,0,0,.4-.23l.14-.09h.1l.43.8,0,.1a2.85,2.85,0,0,1-1.64.56,2.12,2.12,0,0,1-1.62-.68A2.75,2.75,0,0,1,202,137.53Z" style="fill:#fff"/><path d="M206.64,138.09a1.87,1.87,0,0,1,.67-1.53,3.55,3.55,0,0,1,2.19-.53H210a1.17,1.17,0,0,0,.61-.14v-.66c0-.88-.48-1.33-1.44-1.33a2.15,2.15,0,0,0-1.39.42h-.11l-.47-.7,0-.11a3.12,3.12,0,0,1,2-.61,3.06,3.06,0,0,1,1.86.52,1.87,1.87,0,0,1,.69,1.61v3.59l.35,1.23-.07.08-.85.13-.09-.06-.4-1,0,.13a1.19,1.19,0,0,1-.18.28,1.78,1.78,0,0,1-.32.35,1.87,1.87,0,0,1-.55.28,2.47,2.47,0,0,1-.79.13,2.36,2.36,0,0,1-1.5-.5A1.86,1.86,0,0,1,206.64,138.09Zm1.18,0a1,1,0,0,0,.3.75,1.18,1.18,0,0,0,.83.29,2.94,2.94,0,0,0,.72-.1,3.14,3.14,0,0,0,.67-.21l.26-.1v-2.36c-.14.46-.55.7-1.23.7H209a1.49,1.49,0,0,0-.84.23A.86.86,0,0,0,207.82,138.1Z" style="fill:#fff"/><path d="M215.4,139.8l-2.49-6.58.07-.09,1.08-.14.07.06,1.65,5,.2.74.19-.74,1.6-4.88.08-.07L219,133l.05.07-2.57,7-.09.06-.86-.2Z" style="fill:#fff"/><path d="M220,137.73v-2.36a2.32,2.32,0,0,1,.73-1.82,2.76,2.76,0,0,1,1.93-.66,2.49,2.49,0,0,1,1.85.62,2,2,0,0,1,.6,1.46,1.85,1.85,0,0,1-.64,1.53,2.53,2.53,0,0,1-1.67.52,2.56,2.56,0,0,1-1.05-.19,1.57,1.57,0,0,1-.54-.33,1.22,1.22,0,0,1-.16-.26l.07.52v.73a1.66,1.66,0,0,0,.42,1.22,1.52,1.52,0,0,0,1.15.43,1.6,1.6,0,0,0,1.52-.74l.1,0,.84.29,0,.09a1.88,1.88,0,0,1-.9,1,3.53,3.53,0,0,1-3.57-.25A2.24,2.24,0,0,1,220,137.73Zm1.12-1.95a3.44,3.44,0,0,0,1.36.25c1,0,1.45-.37,1.45-1.12a.93.93,0,0,0-.33-.71,1.39,1.39,0,0,0-1-.3,1.41,1.41,0,0,0-1.11.42,1.69,1.69,0,0,0-.39,1.21Z" style="fill:#fff"/><path d="M227,139.91v-5.39l-.35-1.32.07-.08.85-.13.09.06.39,1a1.57,1.57,0,0,1,.13-.26,2,2,0,0,1,.3-.36,1.55,1.55,0,0,1,.61-.37,2.61,2.61,0,0,1,.92-.15,2.16,2.16,0,0,1,1.59.64,2.44,2.44,0,0,1,.63,1.79v4.59l-.07.07h-1l-.07-.07v-4.37a1.61,1.61,0,0,0-.44-1.24,1.67,1.67,0,0,0-1.12-.4,9.83,9.83,0,0,0-1.43.33v5.68L228,140h-1Z" style="fill:#fff"/><path d="M234.74,132l-.7-.28,0-.08.84-1.43.1-.06h1.51l.07.06L234.82,132Zm-.48,7.9v-6.69l.07-.09,1-.14.07.06v6.86l-.07.07h-1Z" style="fill:#fff"/><path d="M107.54,154.73l.06.65V158l-.07.09-1,.14-.07-.06v-8.57l-.35-1.31.07-.09.85-.12.09.05.39,1a2.08,2.08,0,0,1,.13-.26,3.1,3.1,0,0,1,.3-.36,1.62,1.62,0,0,1,.61-.36,2.61,2.61,0,0,1,.92-.15,2.06,2.06,0,0,1,1.56.63,2.5,2.5,0,0,1,.6,1.79v2.41a2.25,2.25,0,0,1-.72,1.78,2.64,2.64,0,0,1-1.85.64A2.47,2.47,0,0,1,107.54,154.73Zm.06-2a1.29,1.29,0,0,0,1.44,1.48,1.39,1.39,0,0,0,1.07-.43,1.69,1.69,0,0,0,.42-1.22v-1.94a1.63,1.63,0,0,0-.42-1.24A1.49,1.49,0,0,0,109,149a9.13,9.13,0,0,0-1.43.32Z" style="fill:#fff"/><path d="M113.59,155v-5.39l-.35-1.31.07-.09.86-.12.08.05.39,1a2.08,2.08,0,0,1,.13-.26,3.1,3.1,0,0,1,.3-.36,1.45,1.45,0,0,1,.59-.36,2.5,2.5,0,0,1,.9-.15l.07.08-.21,1.18-.1.07a1.73,1.73,0,0,0-.73-.13,3.29,3.29,0,0,0-.88.13V155l-.07.07h-1Z" style="fill:#fff"/><path d="M117.64,152.8v-2.41a2.21,2.21,0,0,1,.75-1.78,3.25,3.25,0,0,1,3.87,0,2.21,2.21,0,0,1,.75,1.78v2.41a2.21,2.21,0,0,1-.75,1.78,3.25,3.25,0,0,1-3.87,0A2.21,2.21,0,0,1,117.64,152.8Zm1.12-.24a1.7,1.7,0,0,0,.4,1.23,1.81,1.81,0,0,0,2.32,0,1.69,1.69,0,0,0,.41-1.23v-1.94a1.64,1.64,0,0,0-.41-1.22,1.81,1.81,0,0,0-2.32,0,1.68,1.68,0,0,0-.4,1.22Z" style="fill:#fff"/><path d="M128.16,152.76v-2.37a2.28,2.28,0,0,1,.71-1.78,2.63,2.63,0,0,1,1.84-.64,2.58,2.58,0,0,1,1.54.48l-.05-.62V145.1l.07-.08,1-.14.07.05v8.75l.35,1.23-.07.09-.86.12-.08-.05-.41-1a1.63,1.63,0,0,1-.62.82,2.18,2.18,0,0,1-1.32.34,2,2,0,0,1-1.56-.64A2.62,2.62,0,0,1,128.16,152.76Zm1.12-.24a1.72,1.72,0,0,0,.42,1.28,1.42,1.42,0,0,0,1.07.41,2.33,2.33,0,0,0,.52-.09c.24-.07.45-.13.63-.2l.28-.1v-3.36a1.29,1.29,0,0,0-1.44-1.48,1.42,1.42,0,0,0-1.07.42,1.71,1.71,0,0,0-.41,1.22Z" style="fill:#fff"/><path d="M135.25,152.8v-2.35a2.31,2.31,0,0,1,.73-1.82,2.76,2.76,0,0,1,1.93-.66,2.49,2.49,0,0,1,1.85.62,2,2,0,0,1,.6,1.45,1.85,1.85,0,0,1-.64,1.53,2.88,2.88,0,0,1-2.72.33,1.57,1.57,0,0,1-.54-.33,1.17,1.17,0,0,1-.16-.25l.07.51v.73a1.7,1.7,0,0,0,.42,1.23,1.55,1.55,0,0,0,1.15.42,1.61,1.61,0,0,0,1.52-.74l.1,0,.84.3,0,.08a2,2,0,0,1-.9,1,3.14,3.14,0,0,1-1.55.36,3,3,0,0,1-2-.61A2.26,2.26,0,0,1,135.25,152.8Zm2.21-5.81-.13-.07-1.28-1.43,0-.1.77-.25h.1l.94,1.09.94-1.09h.1l.77.25,0,.1-1.28,1.43-.13.07Zm-1.09,3.86a3.44,3.44,0,0,0,1.36.26c1,0,1.45-.38,1.45-1.12a.93.93,0,0,0-.33-.71,1.4,1.4,0,0,0-1-.3,1.48,1.48,0,0,0-1.12.41,1.75,1.75,0,0,0-.38,1.21Z" style="fill:#fff"/><path d="M142.35,152.6v-3.45h-.76l-.07-.07v-.87l.07-.07h.81l.13-1.42.07-.08.8-.11.07.05v1.56h2.32l.07.07-.27.87-.09.07h-2v3.37a2.07,2.07,0,0,0,.33,1.2,1.08,1.08,0,0,0,.9.47,1.22,1.22,0,0,0,.5-.12,1.68,1.68,0,0,0,.39-.22l.14-.1.1,0,.44.79,0,.1a2.78,2.78,0,0,1-1.64.56,2.09,2.09,0,0,1-1.62-.68A2.75,2.75,0,0,1,142.35,152.6Z" style="fill:#fff"/><path d="M147.44,146.54l-.07-.07v-1.16l.07-.07h1.17l.06.07v1.16l-.06.07Zm0,8.44v-6.69l.07-.08,1-.14.07.05V155l-.07.07h-1Z" style="fill:#fff"/><path d="M154.16,146.54l-.07-.07v-1.16l.07-.07h1.16l.07.07v1.16l-.07.07Zm0,8.44v-6.69l.07-.08,1-.14.07.05V155l-.07.07h-1Z" style="fill:#fff"/><path d="M160.69,152.76v-2.37a2.27,2.27,0,0,1,.7-1.78,2.63,2.63,0,0,1,1.84-.64,2.56,2.56,0,0,1,1.54.48l-.05-.62V145.1l.07-.08,1-.14.07.05v8.75l.35,1.23-.07.09-.86.12-.08-.05-.41-1a1.63,1.63,0,0,1-.62.82,2.18,2.18,0,0,1-1.32.34,2,2,0,0,1-1.56-.64A2.62,2.62,0,0,1,160.69,152.76Zm1.12-.24a1.71,1.71,0,0,0,.41,1.28,1.42,1.42,0,0,0,1.07.41,2.49,2.49,0,0,0,.53-.09c.23-.07.44-.13.62-.2l.28-.1v-3.36a1.29,1.29,0,0,0-1.44-1.48,1.42,1.42,0,0,0-1.07.42,1.71,1.71,0,0,0-.4,1.22Z" style="fill:#fff"/><path d="M167.77,152.8v-2.41a2.21,2.21,0,0,1,.75-1.78,3.26,3.26,0,0,1,3.88,0,2.21,2.21,0,0,1,.75,1.78v2.41a2.21,2.21,0,0,1-.75,1.78,3.26,3.26,0,0,1-3.88,0A2.21,2.21,0,0,1,167.77,152.8Zm1.12-.24a1.71,1.71,0,0,0,.41,1.23,1.8,1.8,0,0,0,2.31,0,1.7,1.7,0,0,0,.42-1.23v-1.94a1.64,1.64,0,0,0-.42-1.22,1.8,1.8,0,0,0-2.31,0,1.68,1.68,0,0,0-.41,1.22Z" style="fill:#fff"/><path d="M174.64,154.58v-.09l.53-.74h.11a2.08,2.08,0,0,0,.67.33,2.87,2.87,0,0,0,.79.14c.93,0,1.4-.36,1.4-1.09a.73.73,0,0,0-.36-.63,2.69,2.69,0,0,0-.87-.38c-.34-.1-.67-.22-1-.35a2,2,0,0,1-.86-.63,1.66,1.66,0,0,1-.36-1.1,1.78,1.78,0,0,1,.74-1.54,3,3,0,0,1,1.78-.52,3.05,3.05,0,0,1,1.81.55l0,.09-.55.75h-.1a2,2,0,0,0-1.16-.38,1.64,1.64,0,0,0-1,.28.88.88,0,0,0-.39.77.78.78,0,0,0,.36.67,2.62,2.62,0,0,0,.86.39c.33.1.67.2,1,.32a1.85,1.85,0,0,1,.87.6,1.65,1.65,0,0,1,.36,1.11c0,1.4-.84,2.1-2.51,2.1A3.39,3.39,0,0,1,174.64,154.58Z" style="fill:#fff"/><path d="M182.06,154.73l.06.65V158l-.07.09-1,.14-.07-.06v-8.57l-.35-1.31.07-.09.85-.12.09.05.39,1a2.08,2.08,0,0,1,.13-.26,3.1,3.1,0,0,1,.3-.36,1.62,1.62,0,0,1,.61-.36A2.61,2.61,0,0,1,184,148a2.06,2.06,0,0,1,1.56.63,2.5,2.5,0,0,1,.6,1.79v2.41a2.25,2.25,0,0,1-.72,1.78,2.64,2.64,0,0,1-1.85.64A2.47,2.47,0,0,1,182.06,154.73Zm.06-2a1.29,1.29,0,0,0,1.44,1.48,1.39,1.39,0,0,0,1.07-.43,1.69,1.69,0,0,0,.42-1.22v-1.94a1.67,1.67,0,0,0-.42-1.24,1.49,1.49,0,0,0-1.08-.4,9.13,9.13,0,0,0-1.43.32Z" style="fill:#fff"/><path d="M187.83,152.8v-2.35a2.31,2.31,0,0,1,.73-1.82,2.76,2.76,0,0,1,1.93-.66,2.49,2.49,0,0,1,1.85.62,2,2,0,0,1,.6,1.45,1.85,1.85,0,0,1-.64,1.53,2.88,2.88,0,0,1-2.72.33,1.57,1.57,0,0,1-.54-.33,1.17,1.17,0,0,1-.16-.25l.07.51v.73a1.7,1.7,0,0,0,.42,1.23,1.55,1.55,0,0,0,1.15.42,1.61,1.61,0,0,0,1.53-.74l.09,0,.84.3.05.08a1.93,1.93,0,0,1-.91,1,3.13,3.13,0,0,1-1.54.36,3,3,0,0,1-2-.61A2.26,2.26,0,0,1,187.83,152.8ZM190,147l-.12-.07-1.29-1.43,0-.1.77-.25h.1l.93,1.09.94-1.09h.1l.77.25,0,.1L191,146.92l-.13.07ZM189,150.85a3.47,3.47,0,0,0,1.36.26c1,0,1.46-.38,1.46-1.12a.93.93,0,0,0-.33-.71,1.74,1.74,0,0,0-2.1.11,1.71,1.71,0,0,0-.39,1.21Z" style="fill:#fff"/><path d="M194.72,153.51V145.1l.07-.08,1-.14.07.05v8.51a.56.56,0,0,0,.19.5.78.78,0,0,0,.44.13h.06l.05.07-.15.89-.07.07h-.12a2,2,0,0,1-.41,0,3.6,3.6,0,0,1-.48-.19,1.1,1.1,0,0,1-.46-.49A1.93,1.93,0,0,1,194.72,153.51Z" style="fill:#fff"/><path d="M198,152.8v-2.35a2.34,2.34,0,0,1,.72-1.82,2.78,2.78,0,0,1,1.94-.66,2.5,2.5,0,0,1,1.85.62,2,2,0,0,1,.6,1.45,1.88,1.88,0,0,1-.64,1.53,2.88,2.88,0,0,1-2.72.33,1.57,1.57,0,0,1-.54-.33.88.88,0,0,1-.16-.25l.07.51v.73a1.7,1.7,0,0,0,.42,1.23,1.54,1.54,0,0,0,1.14.42,1.61,1.61,0,0,0,1.53-.74l.1,0,.84.3,0,.08a2,2,0,0,1-.9,1,3.17,3.17,0,0,1-1.55.36,3,3,0,0,1-2-.61A2.26,2.26,0,0,1,198,152.8Zm1.12-2a3.42,3.42,0,0,0,1.35.26c1,0,1.46-.38,1.46-1.12a.93.93,0,0,0-.33-.71,1.42,1.42,0,0,0-1-.3,1.48,1.48,0,0,0-1.12.41,1.75,1.75,0,0,0-.38,1.21Zm1.43-3.76-.7-.28,0-.09.84-1.42.1-.06h1.51l.07.06-1.72,1.79Z" style="fill:#fff"/><path d="M95.31,64.47c6.88,0,6.8,4.79,6.8,10.71s.08,10.71-6.8,10.71-12.47-4.8-12.47-10.71,2.31-10.71,12.47-10.71" style="fill:#fff"/><path d="M77.8,181.23c1.44-.67,4.66-2.58,4.66-4.42A1.33,1.33,0,0,0,81,175.37a3.31,3.31,0,0,0-2.18,1.15l-.17,0-1.22-.83,0-.16a4.53,4.53,0,0,1,3.69-1.89c1.63,0,3.37.8,3.37,3.09,0,2-2.27,3.45-2.27,3.45l-.93.55h3.51l.08.13-.39,1.42-.14.08h-6.2l-.11-.11Z" style="fill:#fff"/><path d="M86.44,180.86l.11-.11h2v-5.27H87.17L87,175.4,86.65,174l.08-.13h3.68l.11.11v6.79h2.19l.08.13-.38,1.42-.15.08H86.55l-.11-.11Z" style="fill:#fff"/><path d="M94.15,180.32l.11-.12h2l.11.12v2l-.11.11h-2l-.11-.11Z" style="fill:#fff"/><path d="M102.21,178.94V177.4l.12-.11h4.73l.12.11-.42,1.54-.11.11h-4.32Z" style="fill:#fff"/><path d="M113.14,181.23c1.44-.67,4.66-2.58,4.66-4.42a1.33,1.33,0,0,0-1.46-1.44,3.3,3.3,0,0,0-2.17,1.15l-.18,0-1.22-.83v-.16a4.52,4.52,0,0,1,3.68-1.89c1.63,0,3.38.8,3.38,3.09,0,2-2.28,3.45-2.28,3.45l-.92.55h3.5l.08.13-.38,1.42-.15.08h-6.19l-.11-.11Z" style="fill:#fff"/><path d="M122.25,174.67c0-1.91,1.76-3.25,3.87-3.25a4.18,4.18,0,0,1,3.52,1.87l0,.14-1.33.88h-.16a2.64,2.64,0,0,0-2-1.25,1.76,1.76,0,0,0-2,1.85v.88l-.1.94a2.45,2.45,0,0,1,2.37-1.42,3.2,3.2,0,0,1,3.36,3.26v.77c0,2.32-1.86,3.23-3.78,3.23s-3.77-.91-3.77-3.23Zm3.77,6.25a1.68,1.68,0,0,0,1.86-1.84v-.24a1.71,1.71,0,0,0-1.82-1.85,3.82,3.82,0,0,0-1.89.36v1.73A1.69,1.69,0,0,0,126,180.92Z" style="fill:#fff"/><path d="M131.53,180.32l.11-.12h2l.11.12v2l-.11.11h-2l-.11-.11Z" style="fill:#fff"/><path d="M140.69,182.06h.16a2.68,2.68,0,0,0,2,1.25,1.76,1.76,0,0,0,2-1.84v-1l.09-.92a2.46,2.46,0,0,1-2.37,1.4,3.21,3.21,0,0,1-3.36-3.26v-.77c0-2.32,1.86-3.23,3.78-3.23s3.78.91,3.78,3.23v4.82c0,1.9-1.76,3.25-3.88,3.25a4.18,4.18,0,0,1-3.52-1.88l0-.14Zm4.12-3.18v-1.73a1.86,1.86,0,0,0-3.72,0v.24a1.71,1.71,0,0,0,1.83,1.85A3.82,3.82,0,0,0,144.81,178.88Z" style="fill:#fff"/><path d="M148.87,180.32l.11-.12h2l.12.12v2l-.12.11h-2l-.11-.11Z" style="fill:#fff"/><path d="M157,181.23c1.44-.67,4.66-2.58,4.66-4.42a1.33,1.33,0,0,0-1.46-1.44,3.31,3.31,0,0,0-2.18,1.15l-.17,0-1.22-.83v-.16a4.52,4.52,0,0,1,3.68-1.89c1.63,0,3.37.8,3.37,3.09,0,2-2.27,3.45-2.27,3.45l-.93.55H164l.08.13-.39,1.42-.14.08h-6.19l-.12-.11Z" style="fill:#fff"/><path d="M165.88,176.89c0-2.32,1.89-3.23,3.81-3.23s3.8.91,3.8,3.23v2.45c0,2.32-1.88,3.23-3.8,3.23s-3.81-.91-3.81-3.23Zm3.81,4a1.7,1.7,0,0,0,1.88-1.84v-1.93a1.89,1.89,0,0,0-3.77,0v1.93A1.71,1.71,0,0,0,169.69,180.92Z" style="fill:#fff"/><path d="M175.67,181.23c1.44-.67,4.66-2.58,4.66-4.42a1.33,1.33,0,0,0-1.46-1.44,3.31,3.31,0,0,0-2.18,1.15l-.17,0-1.22-.83,0-.16a4.55,4.55,0,0,1,3.69-1.89c1.63,0,3.37.8,3.37,3.09,0,2-2.27,3.45-2.27,3.45l-.93.55h3.51l.08.13-.39,1.42-.14.08H176l-.11-.11Z" style="fill:#fff"/><path d="M184.31,180.86l.11-.11h2.05v-5.27H185l-.14-.08-.38-1.42.08-.13h3.68l.11.11v6.79h2.19l.08.13-.38,1.42-.15.08h-5.71l-.11-.11Z" style="fill:#fff"/><path d="M192.21,180.35l.16-.1h2.08l.12.11-2,4-.14.05-.85-.25,0-.15Z" style="fill:#fff"/><path d="M200.5,171.69l.11-.11h3.33c2.58,0,4,1.33,4,3.52a3.32,3.32,0,0,1-3.52,3.44,2.14,2.14,0,0,1-2-1l.09,1v3.79l-.11.1h-1.76l-.11-.1Zm3.15,5.26c1.11,0,2.28-.51,2.28-1.85a1.76,1.76,0,0,0-2-1.83h-1.45v3.48A3.63,3.63,0,0,0,203.65,177Z" style="fill:#fff"/><path d="M209.57,176.19l-.46-1.64.09-.12,1.56-.21.12.09.52,1.28a2.2,2.2,0,0,1,2.27-1.48l.11.12-.17,1.86-.15.11a3.92,3.92,0,0,0-1.42-.27,1.94,1.94,0,0,0-.55,0v6.29l-.11.11h-1.7l-.11-.11Z" style="fill:#fff"/><path d="M215.68,178.08c1.12-.69,3.11-.28,3.41-.73V177c0-.94-.61-1.16-1.33-1.16a2.62,2.62,0,0,0-1.64.57l-.16,0-.84-1.17,0-.16a4.3,4.3,0,0,1,2.63-.86c1.81,0,3.23.7,3.23,2.59v3.79l.47,1.64-.1.12-1.55.21-.13-.09-.51-1.32a2.41,2.41,0,0,1-4.64-.92A2.32,2.32,0,0,1,215.68,178.08ZM217.6,181a4,4,0,0,0,1.51-.33v-2.55c-.42,1.78-2.58.56-2.58,2C216.53,180.65,216.93,181,217.6,181Z" style="fill:#fff"/><path d="M223.23,170.92l.12-.11,1.69-.23.11.12v4l-.11.92a2.39,2.39,0,0,1,2.24-1.45,2.57,2.57,0,0,1,2.57,2.81v5.32l-.12.11H228l-.12-.11v-5c0-1.1-.62-1.55-1.39-1.55a8.36,8.36,0,0,0-1.38.24v6.29l-.11.11h-1.69l-.12-.11Z" style="fill:#fff"/><path d="M232.58,178.08c1.12-.69,3.1-.28,3.41-.73V177c0-.94-.61-1.16-1.33-1.16a2.64,2.64,0,0,0-1.65.57l-.16,0-.83-1.17,0-.16a4.28,4.28,0,0,1,2.63-.86c1.8,0,3.23.7,3.23,2.59v3.79l.46,1.64-.09.12-1.56.21-.12-.09-.52-1.32a2.41,2.41,0,0,1-4.64-.92A2.31,2.31,0,0,1,232.58,178.08ZM234.5,181a4,4,0,0,0,1.5-.33v-2.55c-.41,1.78-2.57.56-2.57,2C233.43,180.65,233.83,181,234.5,181Z" style="fill:#fff"/></svg>