<svg id="Vrstva_1" data-name="Vrstva 1" xmlns="http://www.w3.org/2000/svg" viewBox="0 0 219.06 300.25"><rect x="6.24" y="5.6" width="205.11" height="290.51" style="fill:#fbfbf1"/><path d="M219.06,6.34A6.34,6.34,0,0,0,212.71,0H6.34A6.34,6.34,0,0,0,0,6.34V293.91a6.34,6.34,0,0,0,6.34,6.34H212.71a6.34,6.34,0,0,0,6.35-6.34ZM12.69,287.56V12.69H206.37V287.56Z" style="fill:#010101"/><path d="M173,96.59H46.1a6.35,6.35,0,0,0,0,12.69H173a6.35,6.35,0,0,0,0-12.69Z" style="fill:#010101"/><path d="M173,128.09H46.1a6.34,6.34,0,1,0,0,12.68H173a6.34,6.34,0,0,0,0-12.68Z" style="fill:#010101"/><path d="M173,159.51H46.1a6.35,6.35,0,1,0,0,12.69H173a6.35,6.35,0,0,0,0-12.69Z" style="fill:#010101"/><path d="M173,191H46.1a6.35,6.35,0,1,0,0,12.69H173A6.35,6.35,0,0,0,173,191Z" style="fill:#010101"/><path d="M173,222.44H46.1a6.34,6.34,0,1,0,0,12.68H173a6.34,6.34,0,1,0,0-12.68Z" style="fill:#010101"/></svg>